<?xml version="1.0" standalone="no"?>
<!DOCTYPE svg PUBLIC "-//W3C//DTD SVG 20010904//EN"
 "http://www.w3.org/TR/2001/REC-SVG-20010904/DTD/svg10.dtd">
<svg version="1.0" xmlns="http://www.w3.org/2000/svg"
 width="1500.000000pt" height="1500.000000pt" viewBox="0 0 1500.000000 1500.000000"
 preserveAspectRatio="xMidYMid meet">
<metadata>
Created by potrace 1.15, written by Peter Selinger 2001-2017
</metadata>
<g transform="translate(0.000000,1500.000000) scale(0.100000,-0.100000)"
fill="#000" stroke="none">
<path d="M4625 14393 c-506 -40 -842 -129 -1216 -319 -402 -204 -794 -556
-1041 -934 -80 -122 -191 -343 -243 -484 -190 -516 -205 -1199 -38 -1708 56
-173 203 -468 232 -468 4 0 6 78 3 173 -5 184 5 297 39 432 19 74 306 986 313
993 2 1 83 -190 181 -425 193 -463 227 -537 288 -627 53 -79 173 -204 272
-283 85 -68 266 -193 280 -193 4 0 5 46 2 101 -19 308 52 773 162 1063 38 101
41 118 41 205 0 382 171 747 448 956 169 129 340 192 541 202 295 15 541 -76
736 -272 247 -247 374 -680 325 -1110 -24 -211 -89 -443 -169 -604 -23 -46
-41 -90 -41 -98 0 -19 114 -171 216 -288 140 -160 243 -263 554 -549 168 -155
333 -309 368 -344 35 -34 67 -60 72 -57 17 11 138 190 210 311 261 439 453
956 521 1406 17 112 22 188 22 348 0 704 -247 1337 -700 1796 -453 460 -1066
719 -1828 774 -128 9 -454 11 -550 3z"/>
<path d="M4299 11838 c-37 -41 -108 -187 -143 -293 -89 -276 -134 -645 -116
-955 10 -174 22 -247 62 -388 21 -71 23 -75 82 -114 154 -104 323 -256 431
-388 73 -89 157 -226 193 -313 47 -115 47 -127 -3 -54 -57 84 -165 198 -265
282 -144 120 -283 208 -745 475 -263 152 -423 254 -545 348 -113 87 -279 249
-350 342 -61 80 -157 239 -166 278 -10 35 -22 26 -38 -28 -47 -159 -48 -459
-1 -638 29 -112 70 -219 115 -298 l29 -52 -74 19 c-215 55 -487 82 -795 77
l-205 -3 65 -40 c145 -88 359 -283 467 -426 57 -74 108 -175 123 -240 17 -76
1 -128 -58 -191 -87 -93 -170 -145 -620 -390 -330 -179 -452 -250 -592 -346
-106 -72 -262 -196 -300 -237 l-25 -28 25 6 c268 61 630 75 811 32 201 -48
348 -167 404 -325 47 -132 39 -261 -35 -624 -28 -132 -48 -241 -46 -244 3 -2
49 35 103 83 337 301 867 622 1288 782 50 19 149 49 220 68 114 29 127 35 104
43 -68 26 -353 80 -573 109 l-60 8 34 38 c47 54 217 188 297 235 272 159 595
266 943 313 132 18 433 17 545 -1 90 -15 90 -15 35 -18 -270 -12 -723 -130
-986 -256 -124 -60 -241 -134 -227 -145 4 -4 40 -13 78 -20 98 -17 373 -86
477 -119 l87 -28 -67 -33 c-277 -137 -558 -407 -716 -691 -57 -102 -103 -206
-94 -215 3 -3 31 10 63 30 78 46 191 89 295 112 127 27 374 25 494 -5 291 -73
483 -236 566 -482 35 -103 39 -281 10 -406 -42 -183 -178 -405 -292 -479 -26
-16 -47 -34 -47 -39 -1 -16 298 2 403 24 55 12 108 26 118 31 24 13 23 -1 -3
-54 -39 -77 -102 -160 -183 -245 -79 -82 -206 -182 -232 -182 -7 0 -16 -5 -20
-12 -11 -18 162 -1 295 28 340 76 682 263 851 466 57 68 116 162 125 199 l7
27 -59 -14 c-32 -8 -94 -14 -139 -14 -68 0 -89 4 -134 28 -82 41 -94 65 -98
183 -5 130 15 249 85 499 5 21 -4 16 -54 -31 -71 -66 -116 -89 -172 -89 -50 0
-104 43 -122 98 -39 114 11 357 122 591 27 57 49 105 49 107 0 2 -24 10 -52
19 -89 25 -276 53 -438 65 -85 6 -156 12 -157 14 -6 6 190 55 319 80 69 14
196 34 282 46 548 71 963 38 1050 -83 57 -78 13 -283 -99 -467 -19 -32 -35
-60 -35 -64 0 -3 72 -6 159 -6 420 0 718 -98 834 -273 20 -30 48 -90 63 -133
22 -66 26 -96 25 -179 0 -55 -7 -127 -15 -160 -8 -33 -13 -61 -11 -63 2 -2 32
13 67 33 384 225 681 771 705 1295 6 126 -3 300 -15 300 -4 0 -23 -30 -42 -68
-45 -88 -209 -254 -295 -299 -102 -53 -101 -53 -108 16 -11 129 -94 240 -220
297 l-65 29 5 150 c8 245 -38 446 -157 680 -164 324 -354 546 -875 1025 -585
537 -845 838 -1008 1165 -104 209 -153 381 -163 583 -4 67 -10 122 -14 122
-13 0 -88 -153 -114 -233 -67 -204 -94 -511 -62 -692 32 -185 29 -180 209
-360 89 -89 254 -245 367 -346 271 -244 381 -350 513 -494 122 -134 279 -339
352 -460 44 -73 135 -256 135 -271 0 -4 -23 29 -51 72 -145 223 -358 446 -849
887 -684 615 -958 921 -1137 1275 -109 214 -164 428 -167 644 0 65 -2 118 -4
118 -2 0 -17 -15 -33 -32z m1661 -3060 c156 -82 292 -207 396 -364 51 -76 114
-201 114 -224 0 -24 -178 13 -261 55 -67 34 -156 119 -209 200 -44 69 -113
226 -144 333 l-15 53 22 -6 c12 -4 56 -25 97 -47z"/>
<path d="M11675 9633 c-69 -9 -241 -57 -323 -89 -238 -96 -420 -217 -814 -541
-292 -241 -376 -295 -454 -297 -143 -3 -99 177 115 474 38 52 67 97 65 99 -2
2 -25 -9 -51 -24 -336 -196 -761 -603 -1054 -1010 -156 -216 -304 -471 -387
-665 -55 -129 -114 -305 -110 -328 2 -9 43 31 102 97 206 232 484 465 788 660
519 333 1090 555 1610 625 134 19 366 28 448 18 l65 -8 -90 -7 c-200 -15 -464
-72 -710 -153 -797 -264 -1625 -861 -2361 -1704 -150 -173 -374 -454 -374
-470 0 -4 21 -15 48 -25 77 -29 220 -105 280 -150 32 -23 184 -146 340 -273
155 -128 286 -232 290 -232 4 0 62 112 129 248 302 615 626 1124 1010 1592
217 264 384 404 618 520 207 102 385 155 607 179 336 37 683 -35 926 -192 40
-26 77 -47 82 -47 6 0 30 16 56 35 409 312 1490 525 2027 399 37 -9 70 -14 73
-11 10 10 -174 184 -303 287 -588 474 -1289 722 -1919 680 -249 -17 -376 -44
-743 -160 -261 -82 -306 -87 -352 -41 -57 58 -29 140 84 248 79 75 197 157
320 223 42 23 77 44 77 46 0 5 -70 3 -115 -3z"/>
<path d="M1559 7788 c-590 -492 -1006 -1137 -1148 -1783 -22 -99 -54 -316 -47
-322 2 -2 34 32 70 76 37 44 90 101 119 127 108 97 209 132 241 82 36 -60 29
-125 -40 -342 -230 -722 -289 -1505 -163 -2181 102 -551 328 -1052 667 -1475
113 -140 299 -340 317 -340 9 0 2 34 -26 120 -64 199 -87 381 -58 457 17 45
59 83 93 83 47 0 91 -37 186 -157 264 -332 517 -578 745 -725 455 -292 910
-464 1450 -545 188 -28 740 -26 963 5 1015 138 1831 602 2533 1442 234 280
493 673 694 1053 61 116 66 131 55 152 -15 28 -248 231 -595 521 -280 234
-592 487 -605 492 -5 2 -55 -68 -113 -155 -174 -264 -341 -467 -563 -684 -421
-410 -827 -642 -1239 -706 -129 -20 -349 -12 -490 17 -623 130 -1085 620
-1239 1313 -82 368 -69 739 40 1157 123 470 395 962 760 1374 44 49 96 108
117 132 l38 43 -38 11 c-169 47 -401 27 -547 -47 -27 -14 -201 -130 -386 -257
-399 -276 -359 -250 -354 -229 2 10 38 207 79 438 49 279 83 442 100 484 14
36 23 66 21 68 -5 6 -110 -47 -236 -120 -249 -143 -508 -327 -648 -461 -45
-43 -227 -238 -404 -433 -178 -195 -324 -350 -326 -345 -1 5 13 236 33 513 35
499 36 507 85 754 27 138 52 288 56 335 6 79 4 88 -18 120 -13 19 -31 36 -40
38 -8 2 -71 -43 -139 -100z"/>
<path d="M5720 7509 c-73 -170 -65 -388 21 -566 52 -109 148 -206 377 -382
320 -247 375 -335 402 -641 43 -492 165 -698 645 -1080 524 -419 1184 -977
1283 -1085 132 -144 219 -320 257 -519 26 -136 29 -309 10 -601 -22 -334 -17
-523 19 -675 60 -259 180 -475 371 -665 115 -115 222 -194 356 -264 100 -52
245 -108 256 -98 3 4 -10 24 -29 45 -89 98 -164 243 -205 397 -24 91 -27 116
-27 280 0 152 4 192 22 257 42 153 118 302 210 408 l30 35 7 -60 c44 -369 197
-734 433 -1026 81 -100 249 -260 348 -330 222 -159 466 -259 759 -311 176 -32
534 -32 720 0 497 86 944 289 1223 557 108 103 176 202 125 180 -264 -112
-733 -60 -1108 124 -105 52 -253 146 -243 156 1 2 37 -1 78 -5 202 -24 485 -2
706 55 602 154 1075 557 1280 1087 154 399 130 856 -65 1246 -47 94 -133 230
-188 297 -49 60 -200 209 -268 265 -256 210 -604 362 -953 416 -122 18 -399
29 -472 17 l-55 -9 75 -23 c142 -44 280 -125 396 -234 409 -382 380 -963 -65
-1290 -251 -185 -700 -292 -1038 -247 -112 15 -112 15 -54 61 134 107 248 316
298 549 27 127 24 408 -5 547 -60 277 -181 505 -363 679 -73 70 -185 152 -194
142 -3 -3 4 -40 15 -83 26 -104 27 -245 1 -347 -81 -314 -363 -526 -671 -504
-108 8 -253 57 -358 120 -42 26 -257 196 -477 378 -588 486 -1104 911 -1235
1017 -250 202 -358 239 -766 265 -143 10 -245 21 -272 30 -119 43 -164 123
-216 391 -56 286 -112 371 -298 444 -83 33 -158 46 -343 61 -158 13 -257 33
-353 70 -152 59 -264 155 -324 280 -26 54 -33 80 -36 153 -2 48 -8 87 -12 87
-4 0 -17 -23 -30 -51z"/>
</g>
</svg>
